<svg width="40" height="40" viewBox="0 0 40 40" fill="none" xmlns="http://www.w3.org/2000/svg">
<path fill-rule="evenodd" clip-rule="evenodd" d="M9.5703 0L24 0.185897L36 12V34.7926C36 37.6712 33.5088 40 30.4403 40H9.5703C6.49112 40 3.99998 37.6712 3.99998 34.7926V5.20738C3.99993 2.32883 6.49107 0 9.5703 0Z" fill="#DD2590"/>
<path d="M11.3855 32L9.51265 25.4545H11.0244L12.1078 30.0025H12.1622L13.3575 25.4545H14.6519L15.844 30.0121H15.9015L16.985 25.4545H18.4967L16.6238 32H15.2751L14.0286 27.7205H13.9775L12.7342 32H11.3855ZM19.7064 32H18.2234L20.483 25.4545H22.2664L24.5228 32H23.0398L21.4003 26.9503H21.3491L19.7064 32ZM19.6137 29.4272H23.1165V30.5075H19.6137V29.4272ZM25.6757 25.4545L27.2578 30.4276H27.3185L28.9037 25.4545H30.4378L28.1814 32H26.398L24.1384 25.4545H25.6757Z" fill="white"/>
<path d="M24.0257 8.16V0L36 12H28.0171C24.4248 12 23.8593 9.44 24.0257 8.16Z" fill="white" fill-opacity="0.3"/>
</svg>
